<svg width="470" height="176" viewBox="0 0 470 176" fill="none" xmlns="http://www.w3.org/2000/svg">
<g clip-path="url(#clip0_4_9)">
<path d="M90.8148 104.197L0.0432587 95.1907L76.9291 95.0731L90.8148 104.197Z" fill="#3AA5DD"/>
<path d="M185.665 176L0 166.876H171.78L185.665 176Z" fill="#3AA5DD"/>
<path d="M161.979 138.563L71.016 127.398L148.093 129.439L161.979 138.563Z" fill="#3AA5DD"/>
<path d="M220.885 15.3685L214.32 11.0096C210.559 16.8602 207.513 23.1356 205.248 29.703C211.024 25.5698 216.275 20.7565 220.885 15.3685Z" fill="#E7352E"/>
<path d="M164.247 23.6066C179.337 21.8786 193.345 14.9626 203.845 4.05549L197.737 0C188.472 8.90584 176.512 14.5304 163.707 16.004C160.924 16.3343 158.122 16.4788 155.32 16.4363C152.103 18.7876 148.817 21.1335 145.586 23.3579C151.768 24.264 158.043 24.3477 164.247 23.6066Z" fill="#E7352E"/>
<path d="M234.345 96.9699L228.165 105.24C219.613 94.504 213.888 81.82 211.507 68.3341C209.76 58.464 209.952 48.3512 212.073 38.5537C204.857 43.0588 197.634 47.0373 190.801 49.0825L190.756 49.0966L190.756 49.0497C190.75 41.9578 192.495 33.9376 194.748 25.7702C185.923 30.6206 176.237 33.7278 166.223 34.9202C155.203 36.2289 144.03 35.3186 133.371 32.2437C131.337 34.013 129.477 35.9706 127.817 38.0901C140.829 42.6351 154.718 44.1497 168.413 42.5169C173.507 41.901 178.537 40.8365 183.442 39.3362L182.122 51.6862C178.258 52.6357 174.34 53.3518 170.389 53.8306C154.32 55.7467 138.022 53.8387 122.841 48.2641C122.289 51.4733 122.692 54.7728 123.999 57.7582C125.306 60.7436 127.461 63.2855 130.199 65.0724L130.956 65.5885L124.822 74.4636L115.102 67.634C111.2 64.9309 106.529 63.5402 101.774 63.6656C97.019 63.7911 92.4291 65.4261 88.6768 68.3313L245.799 176C246.953 171.376 246.685 166.514 245.027 162.044C243.37 157.574 240.4 153.701 236.503 150.926L228.334 145.097L233.968 136.945L236.228 138.444C239.952 140.986 243.938 141.536 247.51 139.59C255.589 135.188 256.138 124.287 254.225 116.377C252.749 110.274 242.537 103.062 234.345 96.9699ZM209.735 132.363L144.946 88.1521L150.58 79.9992L215.369 124.21L209.735 132.363ZM216.88 120.341C204.007 106.154 195.414 88.6526 192.085 69.8393C191.404 65.9425 190.961 62.0083 190.758 58.0583L202.273 53.2311C202.247 58.3311 202.676 63.4234 203.555 68.448C206.341 84.2103 213.32 98.9452 223.767 111.125L216.88 120.341Z" fill="#E7352E"/>
<path d="M235.363 25.0292L229.657 21.2184C221.725 34.8785 218.848 50.8639 221.522 66.4092C223.421 77.4203 227.764 87.873 234.236 97.0077L238.648 91.9013C233.952 84.0517 230.75 75.4105 229.202 66.4092C226.8 52.3155 228.957 37.8278 235.363 25.0292Z" fill="#E7352E"/>
<path d="M291.068 67.8815H282.785V61.9602H285.173L287.196 26.4274H302.452V67.8815H296.197V32.3487H293.097L291.068 67.8815Z" fill="url(#paint0_linear_4_9)"/>
<path d="M309.615 26.4274H325.114V32.3487H315.874V42.4169H324.813V48.3383H315.874V61.9602H325.114V67.8815H309.615V26.4274Z" fill="url(#paint1_linear_4_9)"/>
<path d="M350.153 26.4274V61.9602H352.239V73.3303H345.984V67.8815H336.745V73.3303H330.485V61.9602H332.873L335.314 26.4274H350.153ZM343.898 61.9602V32.3487H341.214L339.186 61.9602H343.898Z" fill="url(#paint2_linear_4_9)"/>
<path d="M302.156 80.2905V121.745H295.897V102.201H289.045V121.745H282.785V80.2905H289.045V96.28H295.897V80.2905H302.156Z" fill="url(#paint3_linear_4_9)"/>
<path d="M327.797 80.2905V121.745H321.537V108.125H315.578V121.745H309.319V80.2905H327.797ZM321.537 86.2119H315.578V102.201H321.537V86.2119Z" fill="url(#paint4_linear_4_9)"/>
<path d="M353.137 80.2905V115.823H355.223V127.193H348.969V121.745H339.729V127.193H333.47V115.823H335.857L338.298 80.2905H353.137ZM346.882 115.823V86.2118H344.199L342.17 115.823H346.882Z" fill="url(#paint5_linear_4_9)"/>
<path d="M361.192 80.2905H376.691V86.2119H367.452V96.28H376.39V102.201H367.452V115.823H376.691V121.745H361.192V80.2905Z" fill="url(#paint6_linear_4_9)"/>
<path d="M393.985 121.745V102.201H392.733L388.502 121.745H382.063L387.308 99.2407L382.364 80.2906H388.798L392.733 96.2801H393.985V80.2905H400.24V96.28H401.492L405.428 80.2905H411.862L406.917 99.2407L412.158 121.745H405.724L401.492 102.201H400.24V121.745H393.985Z" fill="url(#paint7_linear_4_9)"/>
<path d="M436.018 80.2905V115.823H438.104V127.193H431.85V121.745H422.61V127.193H416.351V115.823H418.738L421.179 80.2905H436.018ZM429.763 115.823V86.2118H427.079L425.051 115.823H429.763Z" fill="url(#paint8_linear_4_9)"/>
<path d="M461.358 119.02C461.379 119.383 461.322 119.747 461.192 120.087C461.062 120.427 460.86 120.736 460.602 120.993C460.343 121.25 460.032 121.45 459.69 121.58C459.347 121.709 458.982 121.766 458.616 121.745H444.073V80.2905H450.333V95.6869H458.616C458.982 95.666 459.347 95.7221 459.69 95.8516C460.032 95.9811 460.343 96.1811 460.602 96.4384C460.86 96.6956 461.062 97.0044 461.192 97.3445C461.322 97.6845 461.379 98.0481 461.358 98.4113V119.02ZM450.333 115.823H455.098V101.611H450.333V115.823ZM463.74 121.745V80.2905H470V121.745L463.74 121.745Z" fill="url(#paint9_linear_4_9)"/>
<path d="M302.156 134.546V176H295.897V156.457H289.045V176H282.785V134.546H289.045V150.535H295.897V134.546H302.156Z" fill="url(#paint10_linear_4_9)"/>
<path d="M327.797 134.546V176H321.537V162.38H315.578V176H309.319V134.546H327.797ZM321.537 140.467H315.578V156.457H321.537V140.467Z" fill="url(#paint11_linear_4_9)"/>
<path d="M334.959 176V134.546H341.219V170.079H346.285V134.546H352.54V170.079H357.606V134.546H363.866V176H334.959Z" fill="url(#paint12_linear_4_9)"/>
<path d="M371.033 134.546H386.532V140.467H377.293V150.535H386.231V156.457H377.293V170.079H386.532V176H371.033V134.546Z" fill="url(#paint13_linear_4_9)"/>
<path d="M406.505 176V152.787L399.653 167.058V176H393.393V134.546H399.653V155.627L406.505 141.357V134.546H412.765V176H406.505ZM398.163 128.328H406.806L405.612 132.769H399.357L398.163 128.328Z" fill="url(#paint14_linear_4_9)"/>
<rect x="319.105" y="18.9159" width="5.77193" height="5.75701" fill="#3AA5DD"/>
<rect x="310.035" y="18.9159" width="5.77193" height="5.75701" fill="#3AA5DD"/>
</g>
<defs>
<linearGradient id="paint0_linear_4_9" x1="239.624" y1="121.597" x2="311.577" y2="23.3259" gradientUnits="userSpaceOnUse">
<stop offset="0.0191" stop-color="#1D71B8"/>
<stop offset="0.34583" stop-color="#1F74BA"/>
<stop offset="0.58466" stop-color="#247DC1"/>
<stop offset="0.79483" stop-color="#2D8DCC"/>
<stop offset="0.98851" stop-color="#39A3DC"/>
<stop offset="1" stop-color="#3AA5DD"/>
</linearGradient>
<linearGradient id="paint1_linear_4_9" x1="254.232" y1="132.293" x2="326.186" y2="34.0223" gradientUnits="userSpaceOnUse">
<stop offset="0.0191" stop-color="#1D71B8"/>
<stop offset="0.34583" stop-color="#1F74BA"/>
<stop offset="0.58466" stop-color="#247DC1"/>
<stop offset="0.79483" stop-color="#2D8DCC"/>
<stop offset="0.98851" stop-color="#39A3DC"/>
<stop offset="1" stop-color="#3AA5DD"/>
</linearGradient>
<linearGradient id="paint2_linear_4_9" x1="272.66" y1="145.786" x2="344.613" y2="47.5148" gradientUnits="userSpaceOnUse">
<stop offset="0.0191" stop-color="#1D71B8"/>
<stop offset="0.34583" stop-color="#1F74BA"/>
<stop offset="0.58466" stop-color="#247DC1"/>
<stop offset="0.79483" stop-color="#2D8DCC"/>
<stop offset="0.98851" stop-color="#39A3DC"/>
<stop offset="1" stop-color="#3AA5DD"/>
</linearGradient>
<linearGradient id="paint3_linear_4_9" x1="263.985" y1="139.434" x2="335.938" y2="41.1628" gradientUnits="userSpaceOnUse">
<stop offset="0.0191" stop-color="#1D71B8"/>
<stop offset="0.34583" stop-color="#1F74BA"/>
<stop offset="0.58466" stop-color="#247DC1"/>
<stop offset="0.79483" stop-color="#2D8DCC"/>
<stop offset="0.98851" stop-color="#39A3DC"/>
<stop offset="1" stop-color="#3AA5DD"/>
</linearGradient>
<linearGradient id="paint4_linear_4_9" x1="280.892" y1="151.813" x2="352.846" y2="53.5424" gradientUnits="userSpaceOnUse">
<stop offset="0.0191" stop-color="#1D71B8"/>
<stop offset="0.34583" stop-color="#1F74BA"/>
<stop offset="0.58466" stop-color="#247DC1"/>
<stop offset="0.79483" stop-color="#2D8DCC"/>
<stop offset="0.98851" stop-color="#39A3DC"/>
<stop offset="1" stop-color="#3AA5DD"/>
</linearGradient>
<linearGradient id="paint5_linear_4_9" x1="300.48" y1="166.155" x2="372.434" y2="67.8846" gradientUnits="userSpaceOnUse">
<stop offset="0.0191" stop-color="#1D71B8"/>
<stop offset="0.34583" stop-color="#1F74BA"/>
<stop offset="0.58466" stop-color="#247DC1"/>
<stop offset="0.79483" stop-color="#2D8DCC"/>
<stop offset="0.98851" stop-color="#39A3DC"/>
<stop offset="1" stop-color="#3AA5DD"/>
</linearGradient>
<linearGradient id="paint6_linear_4_9" x1="313.546" y1="175.723" x2="385.5" y2="77.4518" gradientUnits="userSpaceOnUse">
<stop offset="0.0191" stop-color="#1D71B8"/>
<stop offset="0.34583" stop-color="#1F74BA"/>
<stop offset="0.58466" stop-color="#247DC1"/>
<stop offset="0.79483" stop-color="#2D8DCC"/>
<stop offset="0.98851" stop-color="#39A3DC"/>
<stop offset="1" stop-color="#3AA5DD"/>
</linearGradient>
<linearGradient id="paint7_linear_4_9" x1="331.901" y1="189.161" x2="403.854" y2="90.8907" gradientUnits="userSpaceOnUse">
<stop offset="0.0191" stop-color="#1D71B8"/>
<stop offset="0.34583" stop-color="#1F74BA"/>
<stop offset="0.58466" stop-color="#247DC1"/>
<stop offset="0.79483" stop-color="#2D8DCC"/>
<stop offset="0.98851" stop-color="#39A3DC"/>
<stop offset="1" stop-color="#3AA5DD"/>
</linearGradient>
<linearGradient id="paint8_linear_4_9" x1="354.196" y1="205.486" x2="426.15" y2="107.216" gradientUnits="userSpaceOnUse">
<stop offset="0.0191" stop-color="#1D71B8"/>
<stop offset="0.34583" stop-color="#1F74BA"/>
<stop offset="0.58466" stop-color="#247DC1"/>
<stop offset="0.79483" stop-color="#2D8DCC"/>
<stop offset="0.98851" stop-color="#39A3DC"/>
<stop offset="1" stop-color="#3AA5DD"/>
</linearGradient>
<linearGradient id="paint9_linear_4_9" x1="370.642" y1="217.528" x2="442.596" y2="119.257" gradientUnits="userSpaceOnUse">
<stop offset="0.0191" stop-color="#1D71B8"/>
<stop offset="0.34583" stop-color="#1F74BA"/>
<stop offset="0.58466" stop-color="#247DC1"/>
<stop offset="0.79483" stop-color="#2D8DCC"/>
<stop offset="0.98851" stop-color="#39A3DC"/>
<stop offset="1" stop-color="#3AA5DD"/>
</linearGradient>
<linearGradient id="paint10_linear_4_9" x1="290.059" y1="158.525" x2="362.013" y2="60.2544" gradientUnits="userSpaceOnUse">
<stop offset="0.0191" stop-color="#1D71B8"/>
<stop offset="0.34583" stop-color="#1F74BA"/>
<stop offset="0.58466" stop-color="#247DC1"/>
<stop offset="0.79483" stop-color="#2D8DCC"/>
<stop offset="0.98851" stop-color="#39A3DC"/>
<stop offset="1" stop-color="#3AA5DD"/>
</linearGradient>
<linearGradient id="paint11_linear_4_9" x1="306.967" y1="170.905" x2="378.92" y2="72.634" gradientUnits="userSpaceOnUse">
<stop offset="0.0191" stop-color="#1D71B8"/>
<stop offset="0.34583" stop-color="#1F74BA"/>
<stop offset="0.58466" stop-color="#247DC1"/>
<stop offset="0.79483" stop-color="#2D8DCC"/>
<stop offset="0.98851" stop-color="#39A3DC"/>
<stop offset="1" stop-color="#3AA5DD"/>
</linearGradient>
<linearGradient id="paint12_linear_4_9" x1="326.964" y1="185.547" x2="398.917" y2="87.276" gradientUnits="userSpaceOnUse">
<stop offset="0.0191" stop-color="#1D71B8"/>
<stop offset="0.34583" stop-color="#1F74BA"/>
<stop offset="0.58466" stop-color="#247DC1"/>
<stop offset="0.79483" stop-color="#2D8DCC"/>
<stop offset="0.98851" stop-color="#39A3DC"/>
<stop offset="1" stop-color="#3AA5DD"/>
</linearGradient>
<linearGradient id="paint13_linear_4_9" x1="345.999" y1="199.484" x2="417.953" y2="101.214" gradientUnits="userSpaceOnUse">
<stop offset="0.0191" stop-color="#1D71B8"/>
<stop offset="0.34583" stop-color="#1F74BA"/>
<stop offset="0.58466" stop-color="#247DC1"/>
<stop offset="0.79483" stop-color="#2D8DCC"/>
<stop offset="0.98851" stop-color="#39A3DC"/>
<stop offset="1" stop-color="#3AA5DD"/>
</linearGradient>
<linearGradient id="paint14_linear_4_9" x1="361.746" y1="211.014" x2="433.7" y2="112.743" gradientUnits="userSpaceOnUse">
<stop offset="0.0191" stop-color="#1D71B8"/>
<stop offset="0.34583" stop-color="#1F74BA"/>
<stop offset="0.58466" stop-color="#247DC1"/>
<stop offset="0.79483" stop-color="#2D8DCC"/>
<stop offset="0.98851" stop-color="#39A3DC"/>
<stop offset="1" stop-color="#3AA5DD"/>
</linearGradient>
<clipPath id="clip0_4_9">
<rect width="470" height="176" fill="white"/>
</clipPath>
</defs>
</svg>
