<svg width="134" height="40" viewBox="0 0 134 40" fill="none" xmlns="http://www.w3.org/2000/svg">
<g clip-path="url(#clip0_163_1099)">
<path d="M73.3986 20.667H70.8467V3.95954H73.3986V10.5074L73.8223 10.5085C75.2061 10.512 75.6526 9.00616 75.6526 7.88868V3.95954H78.2046V7.78061C78.2046 9.53835 77.555 10.8551 76.2904 11.7179C77.6599 12.6858 78.2046 13.8977 78.2046 15.6553V20.667H75.6526V15.5473C75.6526 14.4654 75.1401 13.1545 73.8429 13.1652L73.3986 13.1688V20.667ZM116.714 20.667V3.95954H118.987V13.722L121.609 3.95954H124.453V20.667H122.157V9.04231L119.025 20.6881L116.714 20.667ZM126.26 20.667V3.95954H128.534V13.722L131.155 3.95954H134V20.667H131.703V9.04231L128.571 20.6881L126.26 20.667ZM132.937 0V1.95717H127.323V0H132.937ZM110.22 20.667H107.668V3.95954H110.22V10.5074L110.644 10.5085C112.027 10.512 112.474 9.00616 112.474 7.88868V3.95954H115.026V7.78061C115.026 9.53835 114.376 10.8551 113.112 11.7179C114.481 12.6858 115.026 13.8977 115.026 15.6553V20.667H112.474V15.5473C112.474 14.4654 111.961 13.1545 110.664 13.1652L110.22 13.1688V20.667ZM64.0174 20.637H61.4654V3.9296H69.0398V10.635H66.4415V6.3164H64.0174V18.2503H66.4415V13.9315H69.0398V20.637H64.0174ZM100.839 20.637H98.2867V3.9296H105.861V10.635H103.263V6.3164H100.839V18.2503H103.263V13.9315H105.861V20.637H100.839ZM57.0602 6.3164H54.6825V18.2503H57.0602V6.3164ZM54.6361 20.637H52.0842V3.9296H59.6586V20.637H54.6361ZM84.9875 6.3164H82.6098V18.2503H84.9875V6.3164ZM82.5634 20.637H80.0114V3.9296H87.5858V20.637H82.5634ZM91.9446 6.3164V10.7965C92.8959 10.849 94.0469 10.7922 94.0469 9.08812V7.56824H94.0455V6.3164H91.9446ZM91.9446 13.1888V18.2503H94.0455C94.0455 17.167 94.0469 16.0861 94.0469 15.0022C94.0469 13.2982 92.8959 13.1364 91.9446 13.1888ZM96.5987 6.87257V8.92098C96.5987 10.2529 96.0496 11.2217 95.176 11.8461C96.1132 12.5885 96.5987 13.7413 96.5987 15.1694V20.637C95.0478 20.637 93.496 20.6315 91.9446 20.6312V20.637H89.3926V3.9296H91.9446V3.93549C93.496 3.93508 95.0478 3.9296 96.5987 3.9296V6.87257ZM44.9069 15.1229C45.5745 11.5497 46.445 7.56131 46.8469 3.95954H50.2774V20.667H48.0502V14.0571L48.3126 8.08511C47.993 10.0063 46.7385 17.0872 45.1448 20.4796V20.4901H44.669V20.4796C43.0753 17.0872 41.8209 10.0063 41.5013 8.08511L41.7636 14.0571V20.667H39.5365V3.95954H42.9669C43.3688 7.56131 44.2392 11.5497 44.9069 15.1229Z" fill="#EB3333"/>
<path d="M70.1363 25.6794V33.122C71.0876 33.1744 72.2385 33.0126 72.2385 31.3086V29.7887H72.2372V25.6794H70.1363ZM74.7905 29.093V31.1414C74.7905 33.712 73.4621 35.5087 70.9859 35.5087H70.1363V40H67.5844V23.2925C69.9856 23.3059 72.3888 23.2925 74.7905 23.2925V29.093ZM75.4923 23.2925H83.38V25.6794H80.7122V40H78.1603V25.6794H75.4923V23.2925ZM63.2513 25.6794H60.8736V37.6132H63.2513V25.6794ZM60.8272 40H58.2753V23.2925H65.8496V40H60.8272ZM42.0884 40H39.5365V23.2925H47.1108V29.998H44.5126V25.6794H42.0884V37.6132H44.5126V33.2945H47.1108V40H42.0884ZM51.4601 40H48.9081V23.2925H56.4825V40H53.8842V25.6794H51.4601V40Z" fill="#EB3333"/>
<path d="M17.2614 31.3113C17.8941 32.0791 18.5726 32.8079 19.2933 33.4935C22.7809 36.798 27.1275 39.0529 31.8357 40V37.1114C27.9148 36.2083 24.3066 34.2717 21.3854 31.5025C20.4559 30.6186 19.6066 29.6538 18.8476 28.6194L17.2614 31.3113Z" fill="#EB3333"/>
<path d="M6.78053 28.303C9.94421 25.292 11.9079 21.14 11.9079 16.5739L11.9083 3.9296H14.8669L14.8674 16.5739C14.8674 18.7974 15.2382 21.4033 15.9178 23.4226C16.5974 21.4033 16.9684 18.7974 16.9684 16.5739L16.9687 3.9296H19.9274L19.9278 16.5739C19.9278 21.14 21.8915 25.292 25.0551 28.303C26.9853 30.1341 29.3029 31.5064 31.8357 32.3178V35.2669C28.5114 34.3728 25.462 32.6637 22.9632 30.2942C21.1335 28.5605 19.6564 26.4888 18.6132 24.1933C17.8411 26.1792 16.9889 28.0596 15.9248 29.4915L15.9178 29.501L15.9109 29.4915C14.8468 28.0596 13.9946 26.1792 13.2224 24.1933C12.1793 26.4888 10.7022 28.5605 8.87252 30.2942C6.37367 32.6638 3.32431 34.3728 0 35.2669L0 32.3178C2.53282 31.5064 4.8504 30.1341 6.78053 28.303Z" fill="#EB3333"/>
<path d="M24.6583 16.3096C24.6583 19.6364 26.0894 22.662 28.395 24.8564C29.4073 25.818 30.5694 26.608 31.8357 27.1954V30.2621C29.7758 29.5183 27.892 28.3557 26.3029 26.8475C23.4624 24.1442 21.6992 20.4139 21.6992 16.3096V13.4606H24.6583V16.3096Z" fill="#EB3333"/>
<path d="M7.1774 13.4606H10.1364V16.3096C10.1364 20.4139 8.37329 24.1442 5.53283 26.8475C3.94373 28.3557 2.05993 29.5183 0 30.2621L0 27.1954C1.26624 26.608 2.42837 25.818 3.4407 24.8564C5.74627 22.662 7.1774 19.6364 7.1774 16.3096V13.4606Z" fill="#EB3333"/>
<path d="M12.988 28.6194C12.2291 29.6538 11.3798 30.6186 10.4502 31.5025C7.52905 34.2717 3.92091 36.2083 0 37.1114V40C4.7082 39.0529 9.05483 36.798 12.5424 33.4935C13.2631 32.8078 13.9416 32.0791 14.5743 31.3113L12.988 28.6194Z" fill="#EB3333"/>
</g>
<defs>
<clipPath id="clip0_163_1099">
<rect width="134" height="40" fill="white"/>
</clipPath>
</defs>
</svg>
