<svg width="145" height="40" viewBox="0 0 145 40" fill="none" xmlns="http://www.w3.org/2000/svg">
<g clip-path="url(#clip0_163_1111)">
<path opacity="0.9" fill-rule="evenodd" clip-rule="evenodd" d="M51.8582 0.0122271L51.8585 0.0122204C52.0422 0.00606103 52.223 0 52.4096 0C59.5356 0 65.3307 5.7318 65.3278 12.7853V26.7547C65.3278 33.802 59.5356 39.5337 52.4096 39.5337C49.0211 39.5337 45.9333 38.2341 43.6278 36.1135L43.6319 36.1081C45.937 38.226 49.023 39.5242 52.4096 39.5242V37.7015H52.413C58.5126 37.7015 63.4752 32.7966 63.4752 26.761V12.7885C63.4752 6.75601 58.5156 1.84796 52.413 1.84796C52.2452 1.84796 52.0804 1.85422 51.9159 1.86048L51.9156 1.86049C51.8937 1.86205 51.8722 1.86283 51.8507 1.86362L51.8437 1.86388L51.8307 1.86438C51.823 1.86469 51.8152 1.86503 51.8078 1.86543C51.8004 1.8658 51.7933 1.86623 51.7859 1.86675C51.717 1.8728 51.6474 1.87812 51.5785 1.88341C51.5041 1.88908 51.4304 1.89473 51.3585 1.90121C51.3507 1.90229 51.3426 1.903 51.3344 1.90359L51.3285 1.90401L51.3237 1.90433L51.3233 1.90434L51.3137 1.905L51.3096 1.9053L51.3041 1.90575C51.2989 1.90622 51.2937 1.90676 51.2885 1.90747C51.1415 1.92146 50.9996 1.94045 50.8533 1.95997L50.8011 1.96698C50.7744 1.97178 50.7496 1.97474 50.7237 1.97867C50.7159 1.97988 50.7078 1.98117 50.6996 1.98264C50.5904 1.99672 50.4867 2.01608 50.383 2.03545L50.3826 2.03548L50.3607 2.03959C50.3485 2.04181 50.3367 2.04403 50.3248 2.04623C50.3093 2.04907 50.2941 2.05189 50.2785 2.05468C50.253 2.05781 50.2278 2.06094 50.2026 2.06721C50.0345 2.10166 49.873 2.13611 49.7115 2.17683L49.6737 2.18623C49.6385 2.19563 49.6033 2.20485 49.5685 2.21407L49.5667 2.21453C49.4504 2.2451 49.3344 2.27556 49.2207 2.31151C49.2019 2.31778 49.1826 2.32091 49.1637 2.32718C48.8344 2.4274 48.5111 2.54329 48.1978 2.67171C48.1915 2.67171 48.1852 2.67484 48.1789 2.67797C46.8804 3.21044 45.7085 3.98095 44.7141 4.93623V4.93311C44.1885 5.43425 43.7167 5.98865 43.3019 6.58374C43.6437 7.19451 43.9415 7.83033 44.1822 8.49747C45.7085 5.59084 48.7837 3.59569 52.3178 3.59569H52.5145C57.5656 3.59569 61.6763 7.65495 61.6763 12.6507V26.8893C61.6763 31.8851 57.5656 35.9506 52.5145 35.9506H52.3178C48.7811 35.9506 45.7096 33.9593 44.183 31.0474C44.1848 31.0426 44.1863 31.0379 44.1882 31.0332C45.7144 33.946 48.7867 35.9381 52.3241 35.9381H52.4222L52.4096 34.1058H52.3115C48.283 34.1058 45.0085 30.864 45.0085 26.8831V15.5761H43.0767V26.7515C43.0767 28.2518 42.7663 29.6738 42.2119 30.9737C42.2119 30.9736 42.2119 30.9734 42.2119 30.9734C42.7644 29.6753 43.0737 28.2525 43.0737 26.7547V12.7822C43.0737 6.74974 38.1111 1.8417 32.0116 1.8417C25.912 1.8417 20.9494 6.74663 20.9494 12.7822V26.7547C20.9494 32.784 25.912 37.6952 32.0116 37.6952H32.0145V39.5242C35.4024 39.5242 38.4896 38.2249 40.7952 36.1052L40.7967 36.1072C38.4911 38.2278 35.4033 39.5275 32.0147 39.5275C27.1947 39.5275 22.9858 36.8996 20.7658 33.0158V39.656H18.9131V0.498007H20.7658V6.51172C22.9858 2.62786 27.1978 0 32.0179 0C36.1603 0 39.853 1.94192 42.2122 4.94249C43.4885 3.32006 45.1545 2.0077 47.067 1.14323L47.0863 1.13383C47.4315 0.974092 47.7922 0.833147 48.1567 0.707861L48.2137 0.68907C48.5682 0.566916 48.9293 0.460425 49.2967 0.372725C49.3033 0.371403 49.3104 0.369941 49.317 0.368399C49.3296 0.365578 49.3422 0.362489 49.3548 0.359491L49.3648 0.357058L49.3767 0.354243C49.3819 0.353025 49.3867 0.351867 49.3919 0.350798C49.7496 0.266232 50.1137 0.197325 50.4844 0.140947C50.5048 0.137814 50.5248 0.135464 50.5444 0.133115C50.5641 0.130767 50.5841 0.128418 50.6044 0.125285C50.9719 0.0751718 51.3393 0.0375846 51.713 0.0187935C51.7345 0.0171748 51.7574 0.0163923 51.7811 0.015583L51.7819 0.0155629C51.793 0.0151738 51.8048 0.0147781 51.8163 0.0142796C51.8274 0.0138123 51.8382 0.0132533 51.8493 0.012529L51.8582 0.0122271ZM40.7952 36.1052L40.7963 36.1041C40.4922 35.7094 40.0333 35.083 39.7259 34.585C37.7278 36.5081 35.0072 37.6919 32.0145 37.6919V37.6952C35.0124 37.6945 37.7319 36.5044 39.723 34.5881C40.0296 35.0853 40.4911 35.7105 40.7952 36.1052ZM41.3445 15.573H41.3474V26.7515C41.3474 28.2455 41.6578 29.6736 42.2119 30.9734C42.2111 30.9756 42.21 30.9777 42.2093 30.9799C41.6548 29.6801 41.3445 28.2518 41.3445 26.7547V15.573ZM39.4159 15.573H41.3445V12.7822C41.3445 12.7164 41.3478 12.6538 41.3507 12.5912C41.3541 12.018 41.2719 10.2327 40.2456 8.4881C40.2456 8.48964 40.2448 8.49121 40.2441 8.49279L40.2433 8.49388C40.243 8.49506 40.2426 8.49627 40.2426 8.49747C38.7159 5.58773 35.644 3.59569 32.1066 3.59569H31.9134C26.8621 3.59569 22.7546 7.66121 22.7546 12.6507V26.8862C22.7546 31.882 26.8653 35.9475 31.9134 35.9475H32.1066C35.644 35.9475 38.7159 33.9523 40.2426 31.0426C40.5178 31.8068 40.8663 32.5334 41.2782 33.2257C41.56 33.7206 41.8767 34.2123 42.2093 34.5881L42.2122 34.585L42.2156 34.5881C42.5478 34.2154 42.8678 33.7237 43.1467 33.2257C43.3944 32.8123 43.6185 32.383 43.8185 31.9399C43.9504 31.6483 44.0719 31.3508 44.183 31.0474C44.1826 31.0468 44.1822 31.0463 44.1822 31.0457C44.0715 31.3494 43.95 31.6476 43.8185 31.9399C43.62 32.3777 43.3982 32.8021 43.1526 33.2131C42.8737 33.708 42.5541 34.1997 42.2215 34.5756C42.2185 34.5756 42.2182 34.5725 42.2182 34.5725C42.2152 34.5725 42.2152 34.5756 42.2152 34.5756C41.8826 34.1997 41.5659 33.7111 41.2841 33.2131C40.8722 32.5209 40.5241 31.7943 40.2485 31.03C38.7219 33.9398 35.6501 35.9349 32.1127 35.9349H32.0145V34.1058H32.1129C36.1381 34.1058 39.4159 30.8672 39.4159 26.8831V15.573ZM39.4159 15.573H39.4156V26.88C39.4156 30.864 36.1378 34.1026 32.1127 34.1026H32.0145V34.1058H31.9197C27.8914 34.1058 24.6168 30.864 24.6168 26.8831V12.6444C24.6168 8.66033 27.8946 5.42172 31.9197 5.42172H32.1129C36.1412 5.42172 39.4159 8.66348 39.4159 12.6444V15.573ZM52.4096 37.7015V37.6919C49.4104 37.6919 46.6933 36.5081 44.6982 34.585C44.397 35.0761 43.9437 35.6816 43.6456 36.08L43.6278 36.1041L43.6319 36.1081C43.933 35.7101 44.3956 35.0902 44.7015 34.5944C46.6959 36.5168 49.4119 37.7007 52.4096 37.7015ZM52.3115 5.41857C48.2863 5.41857 45.0085 8.65722 45.0085 12.6413V26.8768C45.0085 30.8578 48.2833 34.0995 52.3115 34.0995H52.5078C56.533 34.0995 59.8107 30.8609 59.8107 26.8768V12.6413C59.8107 8.66033 56.5363 5.41857 52.5078 5.41857H52.3115ZM52.4096 32.3612H52.4126V32.3644C49.9296 32.3644 47.8178 30.7548 47.0889 28.5355C47.8204 30.7546 49.9274 32.3612 52.4096 32.3612ZM52.4059 30.5289C50.3474 30.5252 48.6726 28.8666 48.6726 26.8299V12.6946C48.6726 10.6555 50.3511 8.99553 52.413 8.99553C54.4745 8.99553 56.153 10.6555 56.153 12.6946V26.8299C56.153 28.8689 54.4745 30.5289 52.413 30.5289L52.4096 30.5289L52.4126 32.3612C55.4959 32.3596 58.0056 29.8765 58.0056 26.8267V12.6914C58.0056 9.64073 55.4945 7.15696 52.4096 7.15696C49.3252 7.15696 46.8137 9.64073 46.8137 12.6914V26.8267C46.8148 27.4229 46.9115 27.9972 47.0889 28.5355C46.9122 27.998 46.8167 27.4247 46.8167 26.8299V21.8717H48.6693V26.8299C48.6693 28.8677 50.3459 30.527 52.4059 30.5289ZM26.4154 12.7008C26.4154 9.65007 28.9268 7.1663 32.0114 7.1663C35.096 7.1663 37.6074 9.64381 37.6074 12.6976V26.8329C37.6074 29.8836 35.096 32.3674 32.0114 32.3674C28.9268 32.3674 26.4154 29.8836 26.4154 26.8329V12.7008ZM35.7515 21.8717H37.6074V26.8299C37.6074 29.8806 35.096 32.3644 32.0114 32.3644V30.5321C33.5713 30.5321 34.9117 29.5799 35.4718 28.2333C34.9114 29.5788 33.5703 30.5289 32.0082 30.5289C29.9466 30.5289 28.2681 28.8688 28.2681 26.8298V12.6976C28.2681 10.6586 29.9466 8.99857 32.0082 8.99857C34.0699 8.99857 35.7516 10.6586 35.7516 12.6976L35.7515 21.8717ZM35.7515 21.8717V26.8299L35.7516 26.8298L35.7515 21.8717ZM11.5846 39.656V20.6846C12.2022 20.3181 12.7881 19.8984 13.3296 19.438L13.4373 19.3441V39.656H11.5846ZM13.4373 0.498037H11.5846C11.5846 7.19454 6.53337 12.7415 0 13.6185V15.4665C7.5563 14.577 13.4373 8.20623 13.4373 0.498037ZM0 22.7456V20.907C5.29511 20.4529 10.0329 18.0223 13.4373 14.3577V16.9449C9.83333 20.2148 5.15893 22.3384 0 22.7456ZM15.2488 0.494898V0.504297C15.2488 9.19909 8.55707 16.3811 0 17.2737V19.1154C6.72974 18.4827 12.4429 14.3483 15.2488 8.57579V39.656H17.1014V0.494898H15.2488Z" fill="#EC444C"/>
<path d="M52.273 35.7914C48.8148 35.7724 45.8144 33.8181 44.3196 30.9657L44.1637 30.6682L44.0489 30.9834C43.7733 31.7392 43.4319 32.4575 43.0252 33.1386L43.0241 33.1402L43.023 33.1418C42.7778 33.5774 42.503 34.006 42.2185 34.352C41.9344 34.0066 41.6615 33.5803 41.4133 33.1416L41.4126 33.1402L41.4118 33.1388C41.0044 32.4542 40.6604 31.7359 40.3881 30.9808L40.2737 30.6638L40.117 30.9626C38.6222 33.8122 35.6213 35.7696 32.1626 35.7883V34.249C36.2467 34.2223 39.5637 30.9285 39.5637 26.88V15.7195H41.1993V26.7515C41.1993 28.2657 41.5137 29.7133 42.0756 31.0306L42.2118 31.3507L42.3485 31.0306C42.91 29.7134 43.2248 28.2721 43.2248 26.7515V15.7226H44.8604V26.8831C44.8604 30.9287 48.1748 34.226 52.2622 34.2522L52.273 35.7914ZM32.1626 39.3769V37.8377C35.0718 37.8 37.7185 36.6586 39.6967 34.8155C39.9722 35.2442 40.3281 35.7331 40.597 36.0864C38.3626 38.0989 35.4061 39.3403 32.1626 39.3769ZM44.7274 34.8158C46.7026 36.659 49.3463 37.8 52.2615 37.8377V39.3769C49.0174 39.3403 46.0604 38.0985 43.8259 36.0854C44.0896 35.7326 44.4504 35.2465 44.7274 34.8158ZM35.8997 26.8298V22.0182H37.4593V26.8298C37.4593 29.7507 35.0941 32.1379 32.1595 32.2159V30.6758C34.2348 30.5983 35.8997 28.9006 35.8997 26.8298ZM48.5211 26.8298C48.5211 28.9008 50.1863 30.5955 52.2618 30.6727L52.2644 32.2159C49.33 32.1378 46.9648 29.7506 46.9648 26.8298V22.0182H48.5211V26.8298Z" stroke="#EC444C" stroke-width="0.3"/>
<path opacity="0.9" d="M73.9374 11.9048H71.6452V10.2712H72.3059L72.8656 0.476196H77.0896V11.9048H75.3571V2.10974H74.5L73.9374 11.9048Z" fill="#EC444C"/>
<path opacity="0.9" d="M78.3489 0.476196H82.6452V2.10974H80.0852V4.88554H82.5626V6.51594H80.0852V10.2712H82.6452V11.9048H78.3489V0.476196Z" fill="#EC444C"/>
<path opacity="0.9" d="M83.46 0.476196H88.497V2.10974H86.8444V11.9048H85.1093V2.10974H83.46V0.476196Z" fill="#EC444C"/>
<path opacity="0.9" d="M77.0459 14.5055H79.1637V25.9341H77.4263V21.0352L77.7085 17.7704H77.6259L76.4182 23.649H74.7982L73.5552 17.7704H73.4726L73.7896 21.0352V25.9341H72.0526V14.5055H74.1671L75.5748 21.0352H75.6256L77.0459 14.5055Z" fill="#EC444C"/>
<path opacity="0.9" d="M81.1804 25.9675C80.7196 25.9675 80.423 25.6567 80.423 25.2141V15.259C80.423 14.8163 80.7196 14.5055 81.1804 14.5055H84.8508C85.3115 14.5055 85.6082 14.8163 85.6082 15.259V25.2172C85.6082 25.6599 85.3115 25.9707 84.8508 25.9707H81.1804V25.9675ZM83.8785 16.1411H82.1493V24.3288H83.8785V16.1411Z" fill="#EC444C"/>
<path opacity="0.9" d="M87.627 25.9341C87.1648 25.9341 86.8674 25.6242 86.8674 25.1828V15.2567C86.8674 14.8154 87.1648 14.5055 87.627 14.5055H91.9044V17.7704H90.1693V16.1364H88.5989V24.3001H90.1693V22.1778H91.9044V25.9341H87.627Z" fill="#EC444C"/>
<path opacity="0.9" d="M98.6081 25.9341H96.7667L95.2433 20.5469H94.7952V25.9341H93.0526V14.5055H94.7952V18.9129H95.2911L96.7667 14.5055H98.6081L96.8178 19.7299L98.6081 25.9341Z" fill="#EC444C"/>
<path opacity="0.9" d="M100.18 25.9675C99.7196 25.9675 99.423 25.6567 99.423 25.2141V15.259C99.423 14.8163 99.7196 14.5055 100.18 14.5055H103.851C104.311 14.5055 104.608 14.8163 104.608 15.259V25.2172C104.608 25.6599 104.311 25.9707 103.851 25.9707H100.18V25.9675ZM102.879 16.1411H101.149V24.3288H102.879V16.1411Z" fill="#EC444C"/>
<path opacity="0.9" d="M110.904 18.4559C110.904 19.1101 110.556 19.5483 110.046 19.7299C110.559 19.9083 110.904 20.334 110.904 21.0039V25.1828C110.904 25.6242 110.607 25.9341 110.144 25.9341H105.867V14.5055H110.144C110.607 14.5055 110.904 14.8154 110.904 15.2567V18.4559ZM109.173 16.1364H107.606V18.9129H109.173V16.1364ZM107.602 24.3032H109.169V20.5469H107.602V24.3032Z" fill="#EC444C"/>
<path opacity="0.9" d="M112.923 25.9341C112.461 25.9341 112.164 25.6242 112.164 25.1828V15.2567C112.164 14.8154 112.461 14.5055 112.923 14.5055H117.201V17.7704H115.466V16.1364H113.895V24.3001H115.466V22.1778H117.201V25.9341H112.923Z" fill="#EC444C"/>
<path opacity="0.9" d="M123.904 25.9341H122.064L120.539 20.5469H120.09V25.9341H118.349V14.5055H120.09V18.9129H120.586L122.064 14.5055H123.904L122.112 19.7299L123.904 25.9341Z" fill="#EC444C"/>
<path opacity="0.9" d="M125.482 25.9675C125.018 25.9675 124.719 25.6567 124.719 25.2141V15.259C124.719 14.8163 125.018 14.5055 125.482 14.5055H129.179C129.643 14.5055 129.941 14.8163 129.941 15.259V25.2172C129.941 25.6599 129.643 25.9707 129.179 25.9707H125.482V25.9675ZM128.203 16.1411H126.461V24.3288H128.203V16.1411Z" fill="#EC444C"/>
<path opacity="0.9" d="M136.158 14.5055H138.275V25.9341H136.538V21.0352L136.817 17.7704H136.734L135.53 23.649H133.908L132.669 17.7704H132.586L132.9 21.0352V25.9341H131.164V14.5055H133.28L134.687 21.0352H134.735L136.158 14.5055Z" fill="#EC444C"/>
<path opacity="0.9" d="M143.086 25.9341H140.73V24.3032H141.627L141.977 22.1809H140.73L139.09 14.5055H140.864L142.158 20.5469H142.241L143.252 14.5055H144.978L143.086 25.9341Z" fill="#EC444C"/>
<path opacity="0.9" d="M72.8122 40C72.35 40 72.0526 39.6894 72.0526 39.2465V29.2883C72.0526 28.8456 72.35 28.5348 72.8122 28.5348H77.0896V31.8092H75.3545V30.1704H73.7841V38.3582H75.3545V36.2296H77.0896V39.9967H72.8122V40Z" fill="#EC444C"/>
<path opacity="0.9" d="M83.5341 28.5348V40H81.807V30.1736H79.9985V40H78.2748V28.5348H83.5341Z" fill="#EC444C"/>
<path opacity="0.9" d="M85.5507 40C85.09 40 84.7933 39.6894 84.7933 39.2465V29.2883C84.7933 28.8456 85.09 28.5348 85.5507 28.5348H89.2211C89.6819 28.5348 89.9785 28.8456 89.9785 29.2883V39.2465C89.9785 39.6894 89.6819 40 89.2211 40H85.5507ZM88.2489 30.1736H86.5196V38.3612H88.2489V30.1736Z" fill="#EC444C"/>
<path opacity="0.9" d="M92.9696 36.2327V40H91.2378V28.5348H95.59C96.0515 28.5348 96.3489 28.8456 96.3489 29.2883V35.4792C96.3489 35.9219 96.0515 36.2327 95.59 36.2327H92.9696ZM92.9696 34.5939H94.6196V30.1736H92.9696V34.5939Z" fill="#EC444C"/>
<path opacity="0.9" d="M97.2007 28.5348H102.238V30.1736H100.585V40H98.85V30.1736H97.2007V28.5348Z" fill="#EC444C"/>
<path opacity="0.9" d="M106.716 40H104.36V38.3612H105.257L105.606 36.2327H104.36L102.719 28.5348H104.493L105.787 34.5939H105.87L106.881 28.5348H108.608L106.716 40Z" fill="#EC444C"/>
</g>
<defs>
<clipPath id="clip0_163_1111">
<rect width="145" height="40" fill="white"/>
</clipPath>
</defs>
</svg>
