<svg width="72" height="41" viewBox="0 0 72 41" fill="none" xmlns="http://www.w3.org/2000/svg">
<path fill-rule="evenodd" clip-rule="evenodd" d="M35.9002 0C55.7243 0 71.8004 8.9559 71.8004 19.9988C71.8004 31.0441 55.7243 40 35.9002 40C16.0761 40 0 31.0441 0 19.9988C0 8.9559 16.0761 0 35.9002 0Z" fill="#1D3461"/>
<path fill-rule="evenodd" clip-rule="evenodd" d="M35.9002 4.01843C51.7394 4.01843 64.5869 11.1745 64.5869 19.9988C64.5869 28.8231 51.7394 35.9816 35.9002 35.9816C20.061 35.9816 7.21356 28.8231 7.21356 19.9988C7.21356 11.1745 20.061 4.01843 35.9002 4.01843Z" fill="#FFFFFE"/>
<path fill-rule="evenodd" clip-rule="evenodd" d="M36.0055 9.03966C38.9828 6.13893 43.6427 4.36546 48.8338 4.39897C48.8338 14.384 48.853 24.2781 48.853 34.2607C40.3997 36.6685 31.001 36.5392 23.2657 34.3493L23.1748 4.39897C27.6791 4.36546 32.6429 6.13893 36.0055 9.03966Z" fill="#CE3334"/>
<path fill-rule="evenodd" clip-rule="evenodd" d="M36.3477 16.2413C38.4659 14.0274 41.728 12.309 45.4209 12.3353C45.4209 19.9509 45.4209 27.7604 45.4209 35.3761C38.99 37.0777 32.9995 36.9413 27.1717 35.4933V12.3353C30.3764 12.309 33.9568 14.0274 36.3477 16.2413Z" fill="#1D3461"/>
<path fill-rule="evenodd" clip-rule="evenodd" d="M38.1954 17.4092C40.931 19.9581 43.6355 22.2151 45.7105 25.6351C47.9627 26.6499 49.93 29.2276 52.0385 31.025C53.0749 31.9177 55.9373 32.6883 54.6162 34.2799L55.2791 34.5073L55.1571 35.2636L51.0884 34.0382L51.3062 33.5571L52.2515 33.7893C51.4617 33.0258 50.4039 32.5304 49.8821 31.5012C47.989 30.1849 45.4449 29.139 44.3439 27.5546L37.6952 23.6726C36.7355 23.0025 35.7207 23.3112 34.9859 24.4696C34.4857 25.3455 33.9113 26.7983 34.6939 27.6743C35.8834 28.9691 35.309 31.4366 35.6178 33.3154C35.8284 33.4997 35.9026 33.5667 36.1132 33.751C36.0964 34.6389 36.4818 36.319 36.1946 36.5297C35.8978 36.7475 36.0869 37.1854 36.1156 37.499L34.6724 38.7004L34.4379 37.6593L34.8615 37.1998C34.153 37.1304 33.5715 36.903 33.8706 35.5699C34.1363 34.2177 33.9041 32.6979 32.6835 31.4366C32.2336 30.6612 31.7669 29.9408 31.6089 28.2894C31.573 26.48 31.1853 24.8214 30.3716 23.1628C30.1322 22.105 30.5822 20.9107 30.642 19.8265C30.7952 18.2325 30.2495 16.7654 28.8518 15.4227C27.4062 13.903 27.1597 12.1319 26.3148 10.4853L22.0379 6.13655C21.5425 5.44008 20.4009 5.04279 20.5517 4.04476C20.511 3.57327 21.6119 2.8792 22.7368 3.5278C22.9546 3.64507 23.4739 5.0404 24.1824 5.37068C26.772 7.19919 28.7393 8.97506 29.7708 11.4282L31.1949 12.3832C30.8957 9.80555 34.8423 8.80752 35.0506 12.8044C37.9441 13.4147 38.6478 14.0466 38.1954 17.4092Z" fill="#FFFFFE"/>
<path fill-rule="evenodd" clip-rule="evenodd" d="M38.1954 17.4092C40.931 19.9581 43.6355 22.2151 45.7105 25.6351C47.9627 26.6499 49.93 29.2276 52.0385 31.025C53.0749 31.9177 55.9373 32.6883 54.6162 34.2799L55.2791 34.5073L55.1571 35.2636L51.0884 34.0382L51.3062 33.5571L52.2515 33.7893C51.4617 33.0258 50.4039 32.5304 49.8821 31.5012C47.989 30.1849 45.4449 29.139 44.3439 27.5546L37.6952 23.6726C36.7355 23.0025 35.7207 23.3112 34.9859 24.4696C34.4857 25.3455 33.9113 26.7983 34.6939 27.6743C35.8834 28.9691 35.309 31.4366 35.6178 33.3154C35.8284 33.4997 35.9026 33.5667 36.1132 33.751C36.0964 34.6389 36.4818 36.319 36.1946 36.5297C35.8978 36.7475 36.0869 37.1854 36.1156 37.499L34.6724 38.7004L34.4379 37.6593L34.8615 37.1998C34.153 37.1304 33.5715 36.903 33.8706 35.5699C34.1363 34.2177 33.9041 32.6979 32.6835 31.4366C32.2336 30.6612 31.7669 29.9408 31.6089 28.2894C31.573 26.48 31.1853 24.8214 30.3716 23.1628C30.1322 22.105 30.5822 20.9107 30.642 19.8265C30.7952 18.2325 30.2495 16.7654 28.8518 15.4227C27.4062 13.903 27.1597 12.1319 26.3148 10.4853L22.0379 6.13655C21.5425 5.44008 20.4009 5.04279 20.5517 4.04476C20.511 3.57327 21.6119 2.8792 22.7368 3.5278C22.9546 3.64507 23.4739 5.0404 24.1824 5.37068C26.772 7.19919 28.7393 8.97506 29.7708 11.4282L31.1949 12.3832C30.8957 9.80555 34.8423 8.80752 35.0506 12.8044C37.9441 13.4147 38.6478 14.0466 38.1954 17.4092Z" stroke="#383674" stroke-width="1.6687" stroke-miterlimit="22.9256"/>
<path fill-rule="evenodd" clip-rule="evenodd" d="M53.1801 32.516C53.6564 32.7314 54.0968 33.1215 54.1375 33.672C54.1447 33.9209 53.6468 34.0334 53.1921 33.909C53.374 33.3537 53.5607 33.0904 53.1801 32.516Z" fill="#292D78"/>
<path fill-rule="evenodd" clip-rule="evenodd" d="M34.3206 35.7997C34.8806 35.8763 35.0003 36.1802 35.0578 36.465C34.3613 36.4914 34.2273 36.4052 34.3206 35.7997Z" fill="#292D78"/>
<path fill-rule="evenodd" clip-rule="evenodd" d="M32.157 27.3703C33.6816 28.5837 33.7342 30.5941 33.9999 32.1761C33.1957 30.9938 31.9344 29.6033 32.157 27.3703Z" fill="#383674"/>
<path fill-rule="evenodd" clip-rule="evenodd" d="M31.5994 24.0866C30.4434 23.0192 30.946 21.1189 31.5443 19.3478C33.9688 20.9537 31.5802 22.507 31.5994 24.0866Z" fill="#383674"/>
<path fill-rule="evenodd" clip-rule="evenodd" d="M35.0745 13.2855C36.2712 13.7833 37.779 14.6927 36.6709 16.0426L35.0913 17.9716C34.7514 18.4144 34.0693 18.2205 33.6481 17.9716C31.2236 16.2867 29.0457 11.7418 28.5646 13.9245C28.4713 14.5539 31.3792 18.187 33.7151 19.7595C34.1914 20.0993 34.8112 20.0491 35.199 19.714C36.1587 18.8715 37.1663 17.9166 37.6856 16.7917C37.8675 16.538 38.1811 14.9345 37.3769 14.2069C37.0993 13.9125 36.2903 13.4315 35.0745 13.2855Z" fill="#383674"/>
<path fill-rule="evenodd" clip-rule="evenodd" d="M33.0449 13.0988L32.9779 10.7342C34.2632 10.5571 34.39 11.6197 34.5839 12.6106L33.0449 13.0988Z" fill="#383674"/>
<path fill-rule="evenodd" clip-rule="evenodd" d="M34.0453 13.9269C33.7438 14.1495 33.4422 14.372 33.1407 14.5946V15.3701C33.2555 15.4275 33.7414 14.676 34.0429 14.3266L34.0453 13.9269Z" fill="#383674"/>
</svg>
