<svg width="256" height="179" viewBox="0 0 256 179" fill="none" xmlns="http://www.w3.org/2000/svg">
<path d="M90.8148 105.973L0.0432587 96.8132L76.9291 96.6937L90.8148 105.973Z" fill="#3AA5DD"/>
<path d="M185.665 179L0 169.721H171.78L185.665 179Z" fill="#3AA5DD"/>
<path d="M161.979 140.925L71.016 129.569L148.093 131.646L161.979 140.925Z" fill="#3AA5DD"/>
<path d="M220.885 15.6304L214.32 11.1973C210.559 17.1476 207.513 23.53 205.248 30.2093C211.024 26.0056 216.275 21.1103 220.885 15.6304Z" fill="#E7352E"/>
<path d="M164.247 24.009C179.337 22.2516 193.345 15.2177 203.845 4.12462L197.737 0C188.472 9.05764 176.512 14.7781 163.707 16.2768C160.924 16.6128 158.122 16.7596 155.32 16.7164C152.103 19.1078 148.817 21.4937 145.586 23.7561C151.768 24.6776 158.043 24.7627 164.247 24.009Z" fill="#E7352E"/>
<path d="M234.345 98.6228L228.165 107.033C219.613 96.1148 213.888 83.2147 211.507 69.4988C209.76 59.4605 209.952 49.1754 212.073 39.2109C204.857 43.7928 197.634 47.8391 190.801 49.9191L190.756 49.9335L190.756 49.8858C190.75 42.673 192.495 34.5161 194.748 26.2094C185.923 31.1426 176.237 34.3027 166.223 35.5154C155.203 36.8464 144.03 35.9206 133.371 32.7933C131.337 34.5928 129.477 36.5838 127.817 38.7394C140.829 43.3619 154.718 44.9022 168.413 43.2416C173.507 42.6152 178.537 41.5326 183.442 40.0067L182.122 52.5673C178.258 53.5329 174.34 54.2612 170.389 54.7482C154.32 56.697 138.022 54.7565 122.841 49.0867C122.289 52.3507 122.692 55.7064 123.999 58.7427C125.306 61.779 127.461 64.3642 130.199 66.1816L130.956 66.7065L124.822 75.7329L115.102 68.7869C111.2 66.0376 106.529 64.6233 101.774 64.7509C97.019 64.8785 92.4291 66.5414 88.6768 69.496L245.799 179C246.953 174.297 246.685 169.353 245.027 164.806C243.37 160.26 240.4 156.321 236.503 153.499L228.334 147.57L233.968 139.279L236.228 140.804C239.952 143.389 243.938 143.949 247.51 141.97C255.589 137.492 256.138 126.405 254.225 118.361C252.749 112.154 242.537 104.819 234.345 98.6228ZM209.735 134.619L144.946 89.6547L150.58 81.3629L215.369 126.327L209.735 134.619ZM216.88 122.392C204.007 107.964 195.414 90.1637 192.085 71.0297C191.404 67.0665 190.961 63.0653 190.758 59.0479L202.273 54.1385C202.247 59.3254 202.676 64.5045 203.555 69.6147C206.341 85.6457 213.32 100.632 223.767 113.019L216.88 122.392Z" fill="#E7352E"/>
<path d="M235.363 25.4558L229.657 21.5801C221.725 35.4731 218.848 51.7309 221.522 67.5411C223.421 78.74 227.764 89.3708 234.236 98.6612L238.648 93.4678C233.952 85.4844 230.75 76.6959 229.202 67.5412C226.8 53.2073 228.957 38.4726 235.363 25.4558Z" fill="#E7352E"/>
</svg>
