<svg width="612" height="140" viewBox="0 0 612 140" fill="none" xmlns="http://www.w3.org/2000/svg">
<path d="M237.622 30.6879C234.512 32.2656 231.065 33.0613 227.578 33.0064C217.564 33.0064 212.994 26.4965 217.064 16.5099C219.024 11.7599 222.314 7.67663 226.538 4.75029C230.762 1.82396 235.741 0.178917 240.876 0.0126687C243.823 -0.117844 246.726 0.763206 249.103 2.50961L245.415 11.5603C244.823 10.3711 243.894 9.38209 242.745 8.71631C241.595 8.05052 240.275 7.73726 238.949 7.81547C233.75 7.81547 228.769 11.6499 226.68 16.7772C224.755 21.5032 226.473 25.2036 231.865 25.2036C235.251 25.006 238.507 23.8287 241.237 21.815L237.622 30.6879Z" fill="#E30613"/>
<path d="M246.625 16.5098C248.691 11.6299 252.145 7.46456 256.558 4.53154C260.972 1.59852 266.15 0.0270987 271.449 0.0125732C283.774 0.0125732 286.227 8.17161 282.83 16.5098C280.764 21.3894 277.31 25.5543 272.896 28.4871C268.483 31.42 263.305 32.9915 258.006 33.0063C245.681 33.0063 243.227 24.8466 246.625 16.5098ZM273.105 16.5098C275.557 10.4901 272.777 7.50284 268.397 7.50284C264.016 7.50284 258.803 10.4901 256.35 16.5098C253.898 22.5286 256.677 25.516 261.057 25.516C265.439 25.516 270.652 22.5286 273.105 16.5098Z" fill="#E30613"/>
<path d="M301.987 12.8533C304.335 8.86358 307.703 5.57111 311.745 3.31436C315.786 1.0576 320.356 -0.0819959 324.984 0.012721C337.31 0.012721 339.745 8.21616 336.366 16.5099C334.31 21.397 330.858 25.5689 326.443 28.5033C322.027 31.4377 316.844 33.0041 311.542 33.0065C302.298 33.0065 296.642 27.7452 299.142 19.7193H295.531L290.481 32.1142H281.044L293.761 0.904339H303.197L298.329 12.8533H301.987ZM326.641 16.5099C329.094 10.4902 326.314 7.50299 321.932 7.50299C317.553 7.50299 312.339 10.4902 309.886 16.5099C307.434 22.5288 310.212 25.5162 314.594 25.5162C318.975 25.5162 324.188 22.5288 326.641 16.5099Z" fill="#E30613"/>
<path d="M345.517 2.91085C349.463 1.12022 353.727 0.134901 358.06 0.0125732C365.618 0.0125732 369.54 3.62401 367.413 8.84091C366.61 10.5568 365.442 12.0764 363.99 13.2932C362.538 14.51 360.838 15.3946 359.008 15.8849L358.952 16.0188C361.37 16.8216 364.103 18.7388 362.178 23.4647C359.762 29.3949 352.368 33.0063 344.761 33.0063C342.639 33.1677 340.509 32.8327 338.539 32.0279C336.569 31.223 334.813 29.9703 333.411 28.3692L339.673 22.5732C340.455 23.6354 341.466 24.5077 342.631 25.1251C343.797 25.7426 345.086 26.0893 346.404 26.1395C350.447 26.1395 352.235 23.9994 352.761 22.7064C353.506 20.8788 352.691 19.4519 348.647 19.4519H343.304L345.847 13.21H351.191C355.475 13.21 356.942 11.3817 357.505 9.99994C358.305 8.03824 356.851 6.87865 353.963 6.87865C351.276 6.98147 348.652 7.71454 346.302 9.01868L345.517 2.91085Z" fill="#E30613"/>
<path d="M203.118 54.4H212.555L207.214 67.5079L222.713 54.4H233.787L214.822 69.514L221.407 85.6099H209.612L205.307 72.1894L199.839 85.6099H190.402L203.118 54.4Z" fill="#E30613"/>
<path d="M228.969 70.005C231.035 65.1252 234.489 60.96 238.903 58.0271C243.316 55.0942 248.494 53.5228 253.793 53.5083C266.118 53.5083 268.571 61.6673 265.174 70.005C263.108 74.8847 259.654 79.0498 255.24 81.9827C250.827 84.9156 245.649 86.4869 240.35 86.5015C228.025 86.5015 225.573 78.3425 228.969 70.005ZM255.448 70.005C257.901 63.9853 255.122 60.998 250.741 60.998C246.36 60.998 241.147 63.9853 238.695 70.005C236.242 76.0238 239.021 79.0111 243.402 79.0111C247.783 79.0111 252.997 76.0238 255.448 70.005Z" fill="#E30613"/>
<path d="M276.105 54.4H285.541L280.963 65.6352H292.422L297 54.4H306.436L293.72 85.6099H284.284L289.37 73.1262H277.911L272.825 85.6099H263.389L276.105 54.4Z" fill="#E30613"/>
<path d="M312.502 54.4H321.938L316.979 66.5719H321.938C326.753 66.5719 334.815 67.4635 331.309 76.0683C327.784 84.7183 318.948 85.6099 314.182 85.6099H299.786L312.502 54.4ZM315.81 79.368C318.747 79.368 320.855 78.5654 321.872 76.0683C322.871 73.6164 321.465 72.8138 318.48 72.8138H314.436L311.765 79.368H315.81Z" fill="#E30613"/>
<path d="M344.517 54.4H353.954L348.613 67.5079L364.112 54.4H375.186L356.221 69.514L362.807 85.6099H351.012L346.706 72.1894L341.238 85.6099H331.802L344.517 54.4Z" fill="#E30613"/>
<path d="M370.368 70.005C372.434 65.1253 375.888 60.9602 380.301 58.0273C384.715 55.0943 389.892 53.5229 395.191 53.5083C407.517 53.5083 409.97 61.6673 406.573 70.005C404.507 74.8846 401.053 79.0496 396.639 81.9824C392.226 84.9153 387.048 86.4867 381.749 86.5015C369.424 86.5015 366.971 78.3425 370.368 70.005ZM396.848 70.005C399.301 63.9853 396.521 60.998 392.139 60.998C387.758 60.998 382.546 63.9853 380.093 70.005C377.641 76.0238 380.419 79.0111 384.801 79.0111C389.182 79.0111 394.395 76.0238 396.848 70.005Z" fill="#E30613"/>
<path d="M417.504 54.4H442.395L439.343 61.8904H423.888L421.981 66.5719H426.94C429.492 66.5719 440.198 66.5268 436.365 75.9351C432.387 85.6987 421.639 85.6099 419.184 85.6099H404.787L417.504 54.4ZM420.812 79.368C423.749 79.368 425.857 78.5654 426.874 76.0683C427.873 73.6164 426.467 72.8138 423.483 72.8138H419.438L416.767 79.368H420.812Z" fill="#E30613"/>
<path d="M449.52 54.4H469.741L466.689 61.8904H455.904L454.125 66.2594H463.897L461.1 73.1262H451.326L449.292 78.1195H460.076L457.024 85.6099H436.803L449.52 54.4Z" fill="#E30613"/>
<path d="M485.007 71.8778L470.312 85.6099H458.709L477.472 69.6932L472.436 54.4H483.173L486.604 67.9538L492.128 54.4H501.563L496.041 67.9538L510.519 54.4H521.255L503.759 69.6932L509.55 85.6099H497.947L494.443 71.8778L488.848 85.6099H479.411L485.007 71.8778Z" fill="#E30613"/>
<path d="M524.962 54.4H534.398L524.734 78.1195H535.855L545.52 54.4H554.956L545.292 78.1195H549.335L543.741 91.8525H535.652L538.196 85.6099H512.245L524.962 54.4Z" fill="#E30613"/>
<path d="M562.37 54.4H582.59L579.538 61.8904H568.754L566.973 66.2594H576.747L573.95 73.1262H564.176L562.141 78.1195H572.926L569.874 85.6099H549.653L562.37 54.4Z" fill="#E30613"/>
<path d="M603.965 54.4C613.113 54.4 611.775 59.9287 610.795 62.3361C610.023 63.9255 608.918 65.3298 607.555 66.4532C606.192 67.5766 604.602 68.3928 602.894 68.846L602.858 68.9349C604.873 69.4251 609.057 71.2083 606.731 76.9155C604.951 81.2853 599.964 85.6099 592.164 85.6099H574.929L587.644 54.4H603.965ZM591.242 79.368C592.685 79.368 596.315 79.3229 597.64 76.0683C598.912 72.9477 595.398 72.9477 593.857 72.9477H589.524L586.909 79.368H591.242ZM596.015 66.7053C599.722 66.7053 601.075 64.922 601.547 63.7631C602.22 62.1133 601.712 60.6418 598.486 60.6418H594.537L592.067 66.7053H596.015Z" fill="#E30613"/>
<path d="M181.323 107.896H195.525C205.106 107.896 205.296 114.048 203.551 118.328C202.156 121.528 199.834 124.236 196.885 126.104C193.936 127.971 190.495 128.913 187.006 128.807H182.239L178.043 139.106H168.606L181.323 107.896ZM185.037 121.939H187.733C191.922 121.939 193.281 119.666 193.827 118.328C194.462 116.767 194.701 114.762 190.658 114.762H187.961L185.037 121.939Z" fill="#E30613"/>
<path d="M204.332 123.5C206.398 118.621 209.852 114.455 214.266 111.522C218.679 108.59 223.857 107.018 229.156 107.003C241.481 107.003 243.934 115.163 240.537 123.5C238.471 128.38 235.017 132.545 230.604 135.478C226.19 138.411 221.012 139.983 215.713 139.997C203.388 139.997 200.935 131.838 204.332 123.5ZM230.812 123.5C233.264 117.481 230.485 114.494 226.105 114.494C221.723 114.494 216.51 117.481 214.057 123.5C211.605 129.519 214.384 132.506 218.765 132.506C223.146 132.506 228.359 129.519 230.812 123.5Z" fill="#E30613"/>
<path d="M264.176 137.678C261.066 139.256 257.619 140.052 254.132 139.997C244.118 139.997 239.548 133.488 243.618 123.5C245.578 118.75 248.868 114.667 253.092 111.741C257.316 108.814 262.294 107.169 267.43 107.003C270.377 106.873 273.28 107.754 275.657 109.5L271.969 118.552C271.377 117.362 270.449 116.373 269.299 115.707C268.149 115.041 266.829 114.728 265.503 114.806C260.304 114.806 255.323 118.641 253.234 123.768C251.308 128.494 253.026 132.195 258.418 132.195C261.805 131.997 265.061 130.82 267.791 128.807L264.176 137.678Z" fill="#E30613"/>
<path d="M293.736 137.678C290.627 139.256 287.179 140.052 283.693 139.997C273.679 139.997 269.11 133.488 273.179 123.5C275.139 118.75 278.429 114.667 282.652 111.741C286.876 108.814 291.855 107.169 296.991 107.003C299.937 106.872 302.84 107.754 305.217 109.5L301.53 118.552C300.938 117.362 300.009 116.373 298.859 115.707C297.71 115.041 296.39 114.728 295.063 114.806C289.864 114.806 284.884 118.641 282.795 123.768C280.869 128.494 282.587 132.195 287.979 132.195C291.366 131.997 294.621 130.82 297.352 128.807L293.736 137.678Z" fill="#E30613"/>
<path d="M319.689 107.896L312.059 126.621L332.737 107.896H341.98L329.263 139.106H320.164L327.794 120.379L307.117 139.106H297.873L310.59 107.896H319.689Z" fill="#E30613"/>
<path d="M357.145 107.896L349.515 126.621L370.192 107.896H379.436L366.72 139.106H357.621L365.25 120.379L344.573 139.106H335.329L348.046 107.896H357.145Z" fill="#E30613"/>
<path d="M167.605 26.4701L35.6082 10.3383L152.91 62.5348L167.605 26.4701Z" fill="url(#paint0_linear_413_155)"/>
<path d="M150.378 68.6418L14.8354 130.407L105.792 48.6759L150.378 68.6418Z" fill="#E30613"/>
<path d="M146.784 77.4614L131.965 113.831L122.674 88.2946L146.784 77.4614Z" fill="#E30613"/>
<path d="M127.156 119.716L122.674 107.299L100.176 130.407L127.156 119.716Z" fill="#E30613"/>
<path d="M112.605 139.255H85.3403L87.0546 134.831H114.32L112.605 139.255Z" fill="#E30613"/>
<path d="M27.2644 139.255H0L1.71428 134.831H28.98L27.2644 139.255Z" fill="#E30613"/>
<path d="M130.055 0.789124H178.022L170.122 20.1854L130.055 0.789124Z" fill="#D6D6D6"/>
<defs>
<linearGradient id="paint0_linear_413_155" x1="35.6086" y1="36.4364" x2="167.605" y2="36.4364" gradientUnits="userSpaceOnUse">
<stop stop-color="#009FE3"/>
<stop offset="0.1975" stop-color="#019BE0"/>
<stop offset="0.37806" stop-color="#0690D7"/>
<stop offset="0.55202" stop-color="#0E7EC8"/>
<stop offset="0.72188" stop-color="#1864B3"/>
<stop offset="0.88729" stop-color="#264299"/>
<stop offset="1" stop-color="#312783"/>
</linearGradient>
</defs>
</svg>
