<svg width="91" height="25" viewBox="0 0 91 25" fill="none" xmlns="http://www.w3.org/2000/svg">
<g clip-path="url(#clip0_177_970)">
<path opacity="0.9" fill-rule="evenodd" clip-rule="evenodd" d="M32.5455 0.00764197L32.5457 0.00763778C32.661 0.00378814 32.7744 0 32.8916 0C37.3637 0 41.0007 3.58237 40.9988 7.99084V16.7217C40.9988 21.1262 37.3637 24.7086 32.8916 24.7086C30.765 24.7086 28.8271 23.8963 27.3802 22.5709L27.3827 22.5675C28.8295 23.8913 30.7661 24.7026 32.8916 24.7026V23.5634H32.8937C36.7217 23.5634 39.8362 20.4979 39.8362 16.7256V7.99281C39.8362 4.22251 36.7236 1.15497 32.8937 1.15497C32.7884 1.15497 32.6849 1.15889 32.5817 1.1628L32.5815 1.1628C32.5678 1.16378 32.5543 1.16427 32.5408 1.16476L32.5364 1.16492L32.5283 1.16524C32.5234 1.16543 32.5185 1.16564 32.5138 1.16589C32.5092 1.16613 32.5048 1.1664 32.5001 1.16672C32.4569 1.1705 32.4132 1.17382 32.37 1.17713C32.3232 1.18068 32.277 1.1842 32.2319 1.18825C32.227 1.18893 32.2219 1.18937 32.2168 1.18975L32.2131 1.19001L32.21 1.19021L32.2098 1.19021L32.2038 1.19063L32.2012 1.19082L32.1977 1.1911C32.1945 1.19139 32.1912 1.19173 32.188 1.19217C32.0957 1.20091 32.0067 1.21278 31.9149 1.22498L31.8821 1.22936C31.8653 1.23236 31.8498 1.23421 31.8335 1.23667C31.8286 1.23742 31.8235 1.23823 31.8184 1.23915C31.7498 1.24795 31.6847 1.26005 31.6197 1.27215L31.6194 1.27218L31.6057 1.27474C31.598 1.27613 31.5906 1.27752 31.5832 1.27889C31.5734 1.28067 31.5639 1.28243 31.5541 1.28417C31.5381 1.28613 31.5223 1.28809 31.5065 1.29201C31.4009 1.31354 31.2996 1.33507 31.1982 1.36052L31.1745 1.36639C31.1524 1.37227 31.1304 1.37803 31.1085 1.38379L31.1074 1.38408C31.0344 1.40319 30.9616 1.42222 30.8903 1.4447C30.8784 1.44861 30.8663 1.45057 30.8545 1.45449C30.6478 1.51713 30.4449 1.58956 30.2483 1.66982C30.2443 1.66982 30.2404 1.67177 30.2364 1.67373C29.4215 2.00652 28.686 2.4881 28.0619 3.08514V3.0832C27.7321 3.39641 27.436 3.7429 27.1756 4.11484C27.3902 4.49657 27.5771 4.89396 27.7282 5.31092C28.686 3.49428 30.616 2.24731 32.8339 2.24731H32.9573C36.1273 2.24731 38.7072 4.78434 38.7072 7.90669V16.8058C38.7072 19.9282 36.1273 22.4691 32.9573 22.4691H32.8339C30.6144 22.4691 28.6867 21.2246 27.7286 19.4046C27.7298 19.4017 27.7307 19.3987 27.7319 19.3957C28.6898 21.2163 30.6178 22.4613 32.8379 22.4613H32.8995L32.8916 21.3161H32.83C30.3017 21.3161 28.2467 19.29 28.2467 16.8019V9.73505H27.0343V16.7197C27.0343 17.6574 26.8395 18.5461 26.4916 19.3585C26.4916 19.3585 26.4916 19.3584 26.4916 19.3584C26.8384 18.5471 27.0325 17.6578 27.0325 16.7217V7.9889C27.0325 4.21859 23.918 1.15106 20.09 1.15106C16.262 1.15106 13.1476 4.21664 13.1476 7.9889V16.7217C13.1476 20.49 16.262 23.5595 20.09 23.5595H20.0918V24.7026C22.2181 24.7026 24.1556 23.8906 25.6025 22.5658L25.6034 22.567C24.1565 23.8924 22.2186 24.7047 20.092 24.7047C17.067 24.7047 14.4256 23.0623 13.0323 20.6349V24.785H11.8696V0.311255H13.0323V4.06983C14.4256 1.64241 17.069 0 20.094 0C22.6937 0 25.0112 1.2137 26.4918 3.08906C27.2928 2.07504 28.3383 1.25481 29.5386 0.714517L29.5507 0.708645C29.7673 0.608807 29.9937 0.520717 30.2225 0.442413L30.2583 0.430669C30.4807 0.354322 30.7073 0.287766 30.9379 0.232953C30.9421 0.232127 30.9465 0.231213 30.9507 0.23025C30.9586 0.228487 30.9665 0.226555 30.9744 0.224682L30.9807 0.223161L30.9881 0.221402C30.9914 0.22064 30.9944 0.219917 30.9976 0.219249C31.2222 0.166395 31.4507 0.123328 31.6833 0.0880916C31.6961 0.0861339 31.7087 0.0846653 31.721 0.0831967C31.7333 0.0817296 31.7459 0.080261 31.7586 0.0783034C31.9892 0.0469824 32.2198 0.0234904 32.4543 0.0117459C32.4678 0.0107342 32.4822 0.0102452 32.4971 0.00973936L32.4976 0.00972679C32.5046 0.00948365 32.512 0.00923631 32.5192 0.00892473C32.5262 0.00863267 32.5329 0.00828333 32.5399 0.00783061L32.5455 0.00764197ZM25.6025 22.5658L25.6032 22.565C25.4124 22.3184 25.1244 21.9269 24.9314 21.6156C23.6774 22.8176 21.9701 23.5575 20.0918 23.5575V23.5595C21.9733 23.5591 23.68 22.8152 24.9296 21.6176C25.122 21.9283 25.4117 22.319 25.6025 22.5658ZM25.9472 9.73311H25.9491V16.7197C25.9491 17.6534 26.1438 18.546 26.4916 19.3584C26.4911 19.3597 26.4904 19.3611 26.49 19.3625C26.142 18.55 25.9472 17.6574 25.9472 16.7217V9.73311ZM24.7369 9.73311H25.9472V7.9889C25.9472 7.94778 25.9493 7.90863 25.9512 7.86948C25.9532 7.51124 25.9016 6.39542 25.2576 5.30506C25.2576 5.30602 25.2571 5.30701 25.2566 5.30799L25.2562 5.30868C25.2559 5.30941 25.2557 5.31017 25.2557 5.31092C24.2976 3.49233 22.3697 2.24731 20.1496 2.24731H20.0284C16.8583 2.24731 14.2805 4.78826 14.2805 7.90669V16.8039C14.2805 19.9262 16.8603 22.4672 20.0284 22.4672H20.1496C22.3697 22.4672 24.2976 21.2202 25.2557 19.4016C25.4284 19.8793 25.6471 20.3334 25.9056 20.7661C26.0825 21.0753 26.2812 21.3827 26.49 21.6176L26.4918 21.6156L26.4939 21.6176C26.7024 21.3846 26.9032 21.0773 27.0783 20.7661C27.2338 20.5077 27.3744 20.2394 27.4999 19.9624C27.5826 19.7802 27.6589 19.5943 27.7286 19.4046C27.7284 19.4043 27.7282 19.4039 27.7282 19.4036C27.6587 19.5934 27.5824 19.7798 27.4999 19.9624C27.3753 20.236 27.2361 20.5013 27.082 20.7582C26.9069 21.0675 26.7064 21.3748 26.4976 21.6098C26.4958 21.6098 26.4955 21.6078 26.4955 21.6078C26.4937 21.6078 26.4937 21.6098 26.4937 21.6098C26.2849 21.3748 26.0862 21.0695 25.9093 20.7582C25.6508 20.3256 25.4324 19.8714 25.2594 19.3938C24.3013 21.2124 22.3735 22.4593 20.1535 22.4593H20.0918V21.3161H20.1536C22.6798 21.3161 24.7369 19.292 24.7369 16.8019V9.73311ZM24.7369 9.73311H24.7367V16.8C24.7367 19.29 22.6796 21.3142 20.1535 21.3142H20.0918V21.3161H20.0324C17.5042 21.3161 15.4492 19.29 15.4492 16.8019V7.90277C15.4492 5.41271 17.5062 3.38858 20.0324 3.38858H20.1536C22.6817 3.38858 24.7369 5.41468 24.7369 7.90277V9.73311ZM32.8916 23.5634V23.5575C31.0093 23.5575 29.3041 22.8176 28.0519 21.6156C27.863 21.9226 27.5785 22.301 27.3913 22.55L27.3802 22.565L27.3827 22.5675C27.5717 22.3188 27.862 21.9313 28.054 21.6215C29.3057 22.823 31.0102 23.563 32.8916 23.5634ZM32.83 3.38661C30.3038 3.38661 28.2467 5.41076 28.2467 7.9008V16.798C28.2467 19.2861 30.302 21.3122 32.83 21.3122H32.9532C35.4793 21.3122 37.5364 19.2881 37.5364 16.798V7.9008C37.5364 5.41271 35.4814 3.38661 32.9532 3.38661H32.83ZM32.8916 20.2258H32.8934V20.2277C31.3351 20.2277 30.0098 19.2217 29.5523 17.8347C30.0114 19.2216 31.3338 20.2258 32.8916 20.2258ZM32.8892 19.0806C31.5973 19.0783 30.5462 18.0416 30.5462 16.7687V7.93411C30.5462 6.65971 31.5997 5.62221 32.8937 5.62221C34.1874 5.62221 35.2408 6.65971 35.2408 7.93411V16.7687C35.2408 18.0431 34.1874 19.0806 32.8937 19.0806L32.8916 19.0806L32.8934 20.2258C34.8285 20.2248 36.4035 18.6728 36.4035 16.7667V7.93214C36.4035 6.02546 34.8275 4.4731 32.8916 4.4731C30.9558 4.4731 29.3796 6.02546 29.3796 7.93214V16.7667C29.3803 17.1393 29.441 17.4983 29.5523 17.8347C29.4415 17.4987 29.3815 17.1404 29.3815 16.7687V13.6698H30.5442V16.7687C30.5442 18.0423 31.5964 19.0794 32.8892 19.0806ZM16.578 7.93798C16.578 6.0313 18.1541 4.47894 20.0899 4.47894C22.0258 4.47894 23.6019 6.02738 23.6019 7.93601V16.7706C23.6019 18.6773 22.0258 20.2296 20.0899 20.2296C18.1541 20.2296 16.578 18.6773 16.578 16.7706V7.93798ZM22.4372 13.6698H23.6019V16.7687C23.6019 18.6754 22.0257 20.2277 20.0899 20.2277V19.0825C21.0689 19.0825 21.9101 18.4874 22.2616 17.6458C21.9099 18.4867 21.0683 19.0805 20.0879 19.0805C18.794 19.0805 17.7407 18.043 17.7407 16.7686V7.93601C17.7407 6.66163 18.794 5.62411 20.0879 5.62411C21.3818 5.62411 22.4372 6.66163 22.4372 7.93601L22.4372 13.6698ZM22.4372 13.6698V16.7687L22.4372 16.7686L22.4372 13.6698ZM7.27035 24.785V12.9279C7.65792 12.6988 8.02562 12.4365 8.36549 12.1488L8.43306 12.09V24.785H7.27035ZM8.43306 0.311273H7.27035C7.27035 4.49659 4.10025 7.96346 0 8.51159V9.66655C4.74223 9.1106 8.43306 5.12889 8.43306 0.311273ZM0 14.216V13.0669C3.32314 12.783 6.29648 11.2639 8.43306 8.97358V10.5905C6.17126 12.6343 3.23767 13.9615 0 14.216ZM9.56992 0.309311V0.315185C9.56992 5.74943 5.3703 10.2382 0 10.7961V11.9471C4.22349 11.5517 7.80899 8.9677 9.56992 5.35987V24.785H10.7326V0.309311H9.56992Z" fill="#EC444C"/>
<path d="M32.8058 22.3696C30.6355 22.3577 28.7525 21.1363 27.8144 19.3536L27.7165 19.1676L27.6445 19.3646C27.4715 19.837 27.2572 20.2859 27.002 20.7116L27.0013 20.7126L27.0006 20.7136C26.8467 20.9859 26.6743 21.2538 26.4958 21.47C26.3175 21.2541 26.1462 20.9877 25.9904 20.7135L25.99 20.7126L25.9895 20.7118C25.7338 20.2839 25.5179 19.8349 25.347 19.363L25.2752 19.1649L25.1769 19.3516C24.2388 21.1326 22.3554 22.356 20.1848 22.3677V21.4056C22.7479 21.389 24.8296 19.3303 24.8296 16.8V9.82468H25.8561V16.7197C25.8561 17.6661 26.0534 18.5708 26.406 19.3941L26.4916 19.5942L26.5773 19.3941C26.9297 18.5709 27.1273 17.6701 27.1273 16.7197V9.82662H28.1537V16.8019C28.1537 19.3305 30.2338 21.3912 32.799 21.4076L32.8058 22.3696ZM20.1848 24.6106V23.6486C22.0106 23.625 23.6716 22.9116 24.9131 21.7597C25.086 22.0276 25.3094 22.3332 25.4781 22.554C24.0758 23.8118 22.2204 24.5877 20.1848 24.6106ZM28.0703 21.7599C29.3099 22.9119 30.969 23.625 32.7986 23.6486V24.6106C30.7626 24.5877 28.9068 23.8116 27.5045 22.5534C27.67 22.3329 27.8964 22.029 28.0703 21.7599ZM22.5301 16.7687V13.7614H23.5089V16.7687C23.5089 18.5942 22.0246 20.0862 20.1829 20.1349V19.1724C21.4853 19.124 22.5301 18.0629 22.5301 16.7687ZM30.4512 16.7687C30.4512 18.063 31.4962 19.1222 32.7988 19.1704L32.8004 20.1349C30.9588 20.0861 29.4745 18.5941 29.4745 16.7687V13.7614H30.4512V16.7687Z" stroke="#EC444C" stroke-width="0.3"/>
<path opacity="0.9" d="M46.4021 7.44046H44.9635V6.41949H45.3782L45.7294 0.297607H48.3804V7.44046H47.293V1.31857H46.7551L46.4021 7.44046Z" fill="#EC444C"/>
<path opacity="0.9" d="M49.1707 0.297607H51.867V1.31857H50.2603V3.05345H51.8151V4.07245H50.2603V6.41949H51.867V7.44046H49.1707V0.297607Z" fill="#EC444C"/>
<path opacity="0.9" d="M52.3783 0.297607H55.5395V1.31857H54.5023V7.44046H53.4133V1.31857H52.3783V0.297607Z" fill="#EC444C"/>
<path opacity="0.9" d="M48.353 9.06595H49.6821V16.2088H48.5917V13.147L48.7688 11.1065H48.717L47.959 14.7806H46.9423L46.1622 11.1065H46.1104L46.3094 13.147V16.2088H45.2192V9.06595H46.5462L47.4297 13.147H47.4616L48.353 9.06595Z" fill="#EC444C"/>
<path opacity="0.9" d="M50.9476 16.2297C50.6585 16.2297 50.4723 16.0355 50.4723 15.7588V9.53687C50.4723 9.2602 50.6585 9.06595 50.9476 9.06595H53.2511C53.5403 9.06595 53.7264 9.2602 53.7264 9.53687V15.7608C53.7264 16.0374 53.5403 16.2317 53.2511 16.2317H50.9476V16.2297ZM52.641 10.0882H51.5557V15.2055H52.641V10.0882Z" fill="#EC444C"/>
<path opacity="0.9" d="M54.9936 16.2088C54.7035 16.2088 54.5168 16.0151 54.5168 15.7393V9.53548C54.5168 9.25963 54.7035 9.06595 54.9936 9.06595H57.678V11.1065H56.589V10.0852H55.6035V15.1876H56.589V13.8611H57.678V16.2088H54.9936Z" fill="#EC444C"/>
<path opacity="0.9" d="M61.8851 16.2088H60.7295L59.7734 12.8418H59.4922V16.2088H58.3986V9.06595H59.4922V11.8206H59.8034L60.7295 9.06595H61.8851L60.7615 12.3312L61.8851 16.2088Z" fill="#EC444C"/>
<path opacity="0.9" d="M62.8718 16.2297C62.5827 16.2297 62.3965 16.0355 62.3965 15.7588V9.53687C62.3965 9.2602 62.5827 9.06595 62.8718 9.06595H65.1753C65.4645 9.06595 65.6506 9.2602 65.6506 9.53687V15.7608C65.6506 16.0374 65.4645 16.2317 65.1753 16.2317H62.8718V16.2297ZM64.5651 10.0882H63.4799V15.2055H64.5651V10.0882Z" fill="#EC444C"/>
<path opacity="0.9" d="M69.6021 11.535C69.6021 11.9438 69.3834 12.2177 69.0635 12.3312C69.3855 12.4427 69.6021 12.7088 69.6021 13.1275V15.7393C69.6021 16.0151 69.4152 16.2088 69.1251 16.2088H66.4409V9.06595H69.1251C69.4152 9.06595 69.6021 9.25963 69.6021 9.53548V11.535ZM68.5152 10.0852H67.5318V11.8206H68.5152V10.0852ZM67.5297 15.1895H68.5131V12.8418H67.5297V15.1895Z" fill="#EC444C"/>
<path opacity="0.9" d="M70.8691 16.2088C70.579 16.2088 70.3923 16.0151 70.3923 15.7393V9.53548C70.3923 9.25963 70.579 9.06595 70.8691 9.06595H73.5535V11.1065H72.4645V10.0852H71.479V15.1876H72.4645V13.8611H73.5535V16.2088H70.8691Z" fill="#EC444C"/>
<path opacity="0.9" d="M77.7608 16.2088H76.6058L75.6484 12.8418H75.3671V16.2088H74.2742V9.06595H75.3671V11.8206H75.6783L76.6058 9.06595H77.7608L76.6358 12.3312L77.7608 16.2088Z" fill="#EC444C"/>
<path opacity="0.9" d="M78.7507 16.2297C78.4594 16.2297 78.2721 16.0355 78.2721 15.7588V9.53687C78.2721 9.2602 78.4594 9.06595 78.7507 9.06595H81.0707C81.3619 9.06595 81.5495 9.2602 81.5495 9.53687V15.7608C81.5495 16.0374 81.3619 16.2317 81.0707 16.2317H78.7507V16.2297ZM80.4582 10.0882H79.365V15.2055H80.4582V10.0882Z" fill="#EC444C"/>
<path opacity="0.9" d="M85.4507 9.06595H86.7794V16.2088H85.6895V13.147L85.8645 11.1065H85.8127L85.057 14.7806H84.0387L83.2612 11.1065H83.2093L83.4062 13.147V16.2088H82.3165V9.06595H83.6449L84.528 13.147H84.5577L85.4507 9.06595Z" fill="#EC444C"/>
<path opacity="0.9" d="M89.799 16.2088H88.3205V15.1895H88.8832L89.1026 13.8631H88.3205L87.2908 9.06595H88.4042L89.2163 12.8418H89.2684L89.9029 9.06595H90.9866L89.799 16.2088Z" fill="#EC444C"/>
<path opacity="0.9" d="M45.696 25C45.4059 25 45.2192 24.8059 45.2192 24.5291V18.3052C45.2192 18.0285 45.4059 17.8343 45.696 17.8343H48.3804V19.8808H47.2914V18.8565H46.3059V23.9739H47.2914V22.6435H48.3804V24.998H45.696V25Z" fill="#EC444C"/>
<path opacity="0.9" d="M52.4248 17.8343V25H51.3409V18.8585H50.2059V25H49.1241V17.8343H52.4248Z" fill="#EC444C"/>
<path opacity="0.9" d="M53.6904 25C53.4013 25 53.2151 24.8059 53.2151 24.5291V18.3052C53.2151 18.0285 53.4013 17.8343 53.6904 17.8343H55.9939C56.2831 17.8343 56.4692 18.0285 56.4692 18.3052V24.5291C56.4692 24.8059 56.2831 25 55.9939 25H53.6904ZM55.3837 18.8585H54.2985V23.9757H55.3837V18.8585Z" fill="#EC444C"/>
<path opacity="0.9" d="M58.3464 22.6454V25H57.2595V17.8343H59.9909C60.2805 17.8343 60.4672 18.0285 60.4672 18.3052V22.1745C60.4672 22.4512 60.2805 22.6454 59.9909 22.6454H58.3464ZM58.3464 21.6212H59.3819V18.8585H58.3464V21.6212Z" fill="#EC444C"/>
<path opacity="0.9" d="M61.0018 17.8343H64.163V18.8585H63.1259V25H62.0369V18.8585H61.0018V17.8343Z" fill="#EC444C"/>
<path opacity="0.9" d="M66.9735 25H65.4949V23.9757H66.0577L66.2771 22.6454H65.4949L64.4652 17.8343H65.5786L66.3907 21.6212H66.4428L67.0774 17.8343H68.161L66.9735 25Z" fill="#EC444C"/>
</g>
<defs>
<clipPath id="clip0_177_970">
<rect width="91" height="25" fill="white"/>
</clipPath>
</defs>
</svg>
