<svg width="94" height="28" viewBox="0 0 94 28" fill="none" xmlns="http://www.w3.org/2000/svg">
<g clip-path="url(#clip0_177_960)">
<path d="M51.4885 14.4669H49.6984V2.77168H51.4885V7.35517L51.7858 7.35595C52.7565 7.35839 53.0697 6.30431 53.0697 5.52208V2.77168H54.8599V5.44642C54.8599 6.67685 54.4042 7.5986 53.5171 8.20256C54.4778 8.88005 54.8599 9.72837 54.8599 10.9587V14.4669H53.0697V10.8831C53.0697 10.1258 52.7102 9.20816 51.8002 9.21565L51.4885 9.21814V14.4669ZM81.8738 14.4669V2.77168H83.4686V9.60542L85.3077 2.77168H87.3032V14.4669H85.692V6.32962L83.4948 14.4817L81.8738 14.4669ZM88.5706 14.4669V2.77168H90.1655V9.60542L92.0045 2.77168H94V14.4669H92.3889V6.32962L90.1917 14.4817L88.5706 14.4669ZM93.2544 0V1.37002H89.3161V0H93.2544ZM77.3184 14.4669H75.5282V2.77168H77.3184V7.35517L77.6156 7.35595C78.5863 7.35839 78.8996 6.30431 78.8996 5.52208V2.77168H80.6897V5.44642C80.6897 6.67685 80.2341 7.5986 79.3469 8.20256C80.3076 8.88005 80.6897 9.72837 80.6897 10.9587V14.4669H78.8996V10.8831C78.8996 10.1258 78.5399 9.20816 77.6301 9.21565L77.3184 9.21814V14.4669ZM44.9077 14.4459H43.1175V2.75072H48.4309V7.44453H46.6081V4.42148H44.9077V12.7752H46.6081V9.75207H48.4309V14.4459H44.9077ZM70.7375 14.4459H68.9473V2.75072H74.2607V7.44453H72.438V4.42148H70.7375V12.7752H72.438V9.75207H74.2607V14.4459H70.7375ZM40.0273 4.42148H38.3593V12.7752H40.0273V4.42148ZM38.3268 14.4459H36.5366V2.75072H41.85V14.4459H38.3268ZM59.6181 4.42148H57.9501V12.7752H59.6181V4.42148ZM57.9175 14.4459H56.1274V2.75072H61.4407V14.4459H57.9175ZM64.4984 4.42148V7.55755C65.1658 7.59429 65.9731 7.55453 65.9731 6.36168V5.29777H65.9722V4.42148H64.4984ZM64.4984 9.23219V12.7752H65.9722C65.9722 12.0169 65.9731 11.2603 65.9731 10.5016C65.9731 9.30872 65.1658 9.19546 64.4984 9.23219ZM67.7632 4.8108V6.24468C67.7632 7.17703 67.378 7.85519 66.7652 8.29226C67.4226 8.81195 67.7632 9.61888 67.7632 10.6186V14.4459C66.6753 14.4459 65.5867 14.4421 64.4984 14.4418V14.4459H62.7082V2.75072H64.4984V2.75484C65.5867 2.75455 66.6753 2.75072 67.7632 2.75072V4.8108ZM31.5018 10.586C31.9701 8.08481 32.5808 5.29292 32.8627 2.77168H35.2691V14.4669H33.7068V9.83998L33.8909 5.65958C33.6667 7.00438 32.7867 11.961 31.6687 14.3357V14.3431H31.3349V14.3357C30.2169 11.961 29.337 7.00438 29.1128 5.65958L29.2968 9.83998V14.4669H27.7345V2.77168H30.141C30.4228 5.29292 31.0335 8.08481 31.5018 10.586Z" fill="#E3DADB"/>
<path d="M49.2 17.9756V23.1854C49.8674 23.2221 50.6747 23.1088 50.6747 21.916V20.8521H50.6738V17.9756H49.2ZM52.4649 20.3651V21.799C52.4649 23.5984 51.5331 24.8561 49.796 24.8561H49.2V28H47.4099V16.3048C49.0943 16.3141 50.7802 16.3048 52.4649 16.3048V20.3651ZM52.9573 16.3048H58.4904V17.9756H56.6189V28H54.8288V17.9756H52.9573V16.3048ZM44.3703 17.9756H42.7023V26.3293H44.3703V17.9756ZM42.6698 28H40.8796V16.3048H46.193V28H42.6698ZM29.5247 28H27.7345V16.3048H33.0479V20.9986H31.2252V17.9756H29.5247V26.3293H31.2252V23.3062H33.0479V28H29.5247ZM36.0988 28H34.3086V16.3048H39.622V28H37.7993V17.9756H36.0988V28Z" fill="#E3DADB"/>
<path d="M12.1088 21.9179C12.5526 22.4553 13.0286 22.9655 13.5341 23.4454C15.9806 25.7586 19.0297 27.337 22.3325 28V25.978C19.582 25.3458 17.0509 23.9902 15.0017 22.0517C14.3496 21.433 13.7539 20.7576 13.2215 20.0336L12.1088 21.9179Z" fill="#E3DADB"/>
<path d="M4.75649 19.8121C6.97579 17.7044 8.35332 14.798 8.35332 11.6017L8.35357 2.7507H10.429L10.4293 11.6017C10.4293 13.1582 10.6895 14.9823 11.1662 16.3958C11.643 14.9823 11.9032 13.1582 11.9032 11.6017L11.9035 2.7507H13.9789L13.9792 11.6017C13.9792 14.798 15.3567 17.7044 17.576 19.8121C18.93 21.0939 20.5557 22.0545 22.3325 22.6225V24.6868C20.0005 24.0609 17.8614 22.8646 16.1085 21.2059C14.825 19.9923 13.7888 18.5421 13.0571 16.9353C12.5154 18.3255 11.9176 19.6417 11.1711 20.644L11.1662 20.6507L11.1614 20.644C10.4149 19.6417 9.81711 18.3255 9.27544 16.9353C8.5437 18.5421 7.5075 19.9923 6.224 21.2059C4.47108 22.8646 2.33198 24.0609 0 24.6868L0 22.6225C1.77675 22.0545 3.40252 21.0939 4.75649 19.8121Z" fill="#E3DADB"/>
<path d="M17.2976 11.4167C17.2976 13.7455 18.3015 15.8634 19.9188 17.3995C20.629 18.0726 21.4442 18.6256 22.3324 19.0368V21.1835C20.8874 20.6628 19.566 19.849 18.4512 18.7933C16.4586 16.9009 15.2218 14.2897 15.2218 11.4167V9.42242H17.2976V11.4167Z" fill="#E3DADB"/>
<path d="M5.03489 9.42242H7.11064V11.4167C7.11064 14.2897 5.8738 16.9009 3.88124 18.7933C2.76649 19.849 1.44502 20.6628 0 21.1835L0 19.0368C0.888259 18.6256 1.70349 18.0726 2.41362 17.3995C4.03096 15.8634 5.03489 13.7455 5.03489 11.4167V9.42242Z" fill="#E3DADB"/>
<path d="M9.111 20.0336C8.5786 20.7576 7.98285 21.433 7.33077 22.0517C5.28157 23.9902 2.75049 25.3458 0 25.978V28C3.30276 27.337 6.3519 25.7586 8.79839 23.4454C9.30395 22.9655 9.77995 22.4553 10.2238 21.9179L9.111 20.0336Z" fill="#E3DADB"/>
</g>
<defs>
<clipPath id="clip0_177_960">
<rect width="94" height="28" fill="white"/>
</clipPath>
</defs>
</svg>
